<svg version="1.1" id="Icons" xmlns="http://www.w3.org/2000/svg" xmlns:xlink="http://www.w3.org/1999/xlink" viewBox="0 0 32 32" xml:space="preserve" fill="#000000"><g id="SVGRepo_bgCarrier" stroke-width="0"></g><g id="SVGRepo_tracerCarrier" stroke-linecap="round" stroke-linejoin="round"></g><g id="SVGRepo_iconCarrier"> <style type="text/css"> .st0{fill:none;stroke:#ffffff;stroke-width:2;stroke-linecap:round;stroke-linejoin:round;stroke-miterlimit:10;} .st1{fill:none;stroke:#ffffff;stroke-width:2;stroke-linecap:round;stroke-linejoin:round;stroke-miterlimit:10;stroke-dasharray:3;} .st2{fill:none;stroke:#ffffff;stroke-width:2;stroke-linejoin:round;stroke-miterlimit:10;} .st3{fill:none;} </style> <path class="st0" d="M25.9,15c-0.1-1.5-0.6-2.9-1.3-4.2c-0.9-1.7-0.6-3.9,0.8-5.3l0,0c-1.7-1.7-4.3-1.7-6,0 c-0.1,0.1-0.2,0.2-0.3,0.3C17.9,5.3,16.5,5,15,5c-3.7,0-7,1.8-9,4.6c-1.3,1.8-2,4-2,6.4c0,2,0.6,4,1.5,5.6L10,29h4l-0.3-2.1 C14.1,27,14.5,27,15,27c0.8,0,1.6,0,2.3-0.1L17,29h4l2.2-3.3c2.4-0.9,4.5-2.1,5.8-3.6V15H25.9z"></path> <path class="st0" d="M5.9,22.4c-0.2,0.6-0.8,1.1-1.4,1.1C3.7,23.5,3,22.8,3,22"></path> <path class="st0" d="M18,13.5c0-1.1-0.8-1.9-1.9-1.9h-1.3c-1,0-1.9,0.9-1.9,1.9v0c0,1.1,0.8,1.9,1.9,1.9h1.3"></path> <path class="st0" d="M14.9,15.5h1.3c1,0,1.9,0.9,1.9,1.9v0c0,1.1-0.8,1.9-1.9,1.9h-1.3c-1,0-1.9-0.9-1.9-1.9"></path> <line class="st0" x1="15.5" y1="10" x2="15.5" y2="11.6"></line> <line class="st0" x1="15.5" y1="21" x2="15.5" y2="19.4"></line> <rect x="-72" y="-288" class="st3" width="536" height="680"></rect> </g></svg>