<?xml version="1.0" encoding="iso-8859-1"?>
<!-- Uploaded to: SVG Repo, www.svgrepo.com, Generator: SVG Repo Mixer Tools -->
<svg height="800px" width="800px" version="1.1" id="Layer_1" xmlns="http://www.w3.org/2000/svg" xmlns:xlink="http://www.w3.org/1999/xlink" 
	 viewBox="0 0 512 512" xml:space="preserve">
<polygon style="fill:#FF583E;" points="3.432,190.704 145.048,330.248 286.672,190.704 225.896,190.704 225.896,0 64.208,0 
	64.208,190.704 "/>
<path style="fill:#32BEA6;" d="M378.136,413.528v-97.76c-30.496-8.712-52.848-21.888-67.088-39.544
	c-14.232-17.656-21.344-39.088-21.344-64.288c0-25.52,8.04-46.936,24.144-64.288c16.104-17.336,37.52-27.328,64.288-29.984V94.568
	h33.832v23.096c24.728,2.952,44.408,11.392,59.032,25.32c14.608,13.92,23.952,32.552,28,55.88l-59.032,7.712
	c-3.584-18.36-12.92-30.8-28-37.336v91.24c37.32,10.112,62.768,23.216,76.296,39.32c13.528,16.088,20.304,36.744,20.304,61.944
	c0,28.152-8.512,51.888-25.56,71.176c-17.032,19.288-40.704,31.112-71.04,35.464V512h-33.832v-42.472
	c-26.92-3.264-48.768-13.296-65.568-30.104c-16.8-16.784-27.544-40.504-32.208-71.16l60.904-6.536
	c2.48,12.448,7.144,23.184,14,32.208C362.112,402.952,369.728,409.488,378.136,413.528z M378.136,168.528
	c-9.184,3.104-16.496,8.392-21.936,15.872c-5.456,7.464-8.168,15.704-8.168,24.728c0,8.24,2.48,15.904,7.464,22.992
	c4.984,7.08,12.52,12.8,22.64,17.152V168.528z M411.968,416.8c11.656-2.176,21.144-7.584,28.456-16.224
	c7.312-8.624,10.968-18.784,10.968-30.456c0-10.424-3.08-19.392-9.216-26.952c-6.136-7.544-16.208-13.328-30.208-17.384
	L411.968,416.8L411.968,416.8z"/>
</svg>