<?xml version="1.0" encoding="iso-8859-1"?>
<!-- Uploaded to: SVG Repo, www.svgrepo.com, Generator: SVG Repo Mixer Tools -->
<svg version="1.1" id="Layer_1" xmlns="http://www.w3.org/2000/svg" xmlns:xlink="http://www.w3.org/1999/xlink" 
	 viewBox="0 0 512 512" xml:space="preserve">
<path style="fill:#C7E624;" d="M0,512l147.555-341.254l193.7,193.7L0,512z"/>
<path style="fill:#9FBD00;" d="M0,512l244.404-244.404l96.85,96.85L0,512z"/>
<rect x="303.802" y="143.345" transform="matrix(-0.7071 -0.7071 0.7071 -0.7071 411.7433 553.5167)" style="fill:#FFB42B;" width="33.413" height="96.277"/>
<g>
	
		<rect x="318.062" y="149.262" transform="matrix(-0.7071 -0.7071 0.7071 -0.7071 417.6422 567.7937)" style="fill:#FF7C18;" width="16.707" height="96.277"/>
	<path style="fill:#FF7C18;" d="M309.27,310.538l-23.628-23.628c16.599-16.599,37.744-28.192,61.149-33.525
		c21.508-4.901,44.404-4.214,64.469,1.932l-9.787,31.95C375.208,279.22,336.512,283.296,309.27,310.538z"/>
</g>
<path style="fill:#FFB42B;" d="M225.092,226.359l-23.628-23.628c27.242-27.242,31.317-65.938,23.27-92.203l31.95-9.787
	c6.146,20.065,6.833,42.961,1.933,64.47C253.283,188.614,241.691,209.76,225.092,226.359z"/>
<g>
	<polygon style="fill:#9FBD00;" points="150.804,173.995 147.555,170.746 124.9,223.142 160.387,442.65 192.026,428.97 	"/>
	<polygon style="fill:#9FBD00;" points="98.452,469.431 76.668,334.688 52.03,391.668 66.814,483.11 	"/>
	<polygon style="fill:#9FBD00;" points="270.385,293.576 230.008,253.198 254.087,402.136 285.725,388.455 	"/>
</g>
<polygon style="fill:#FFB42B;" points="432.043,159.63 400.873,152.133 377.626,174.211 368.532,143.468 337.789,134.374 
	359.867,111.128 352.37,79.957 383.541,87.454 406.788,65.376 415.881,96.119 446.624,105.213 424.546,128.459 "/>
<g>
	<polygon style="fill:#FF7C18;" points="432.043,159.63 400.873,152.133 377.626,174.211 368.532,143.468 415.881,96.119 
		446.624,105.213 424.546,128.459 	"/>
	<polygon style="fill:#FF7C18;" points="497.419,322.41 466.247,314.913 443,336.992 433.908,306.247 403.163,297.155 
		425.242,273.908 417.745,242.736 448.916,250.233 472.163,228.155 481.257,258.898 512,267.992 489.922,291.239 	"/>
</g>
<polygon style="fill:#FFB42B;" points="189.59,14.582 197.088,45.753 175.009,69 205.753,78.093 214.846,108.837 238.092,86.758 
	269.264,94.256 261.767,63.084 283.845,39.837 253.102,30.744 244.008,0 220.762,22.078 "/>
<g>
	<polygon style="fill:#6D8F00;" points="160.387,442.65 192.026,428.97 176.857,335.144 147.718,364.282 	"/>
	<polygon style="fill:#6D8F00;" points="66.814,483.11 98.452,469.431 90.675,421.326 61.536,450.465 	"/>
	<polygon style="fill:#6D8F00;" points="285.725,388.455 270.385,293.576 244.404,267.596 234.015,277.986 254.087,402.136 	"/>
</g>
</svg>