<?xml version="1.0" encoding="utf-8"?>
<!-- Generator: Adobe Illustrator 24.2.0, SVG Export Plug-In . SVG Version: 6.00 Build 0)  -->
<svg version="1.1" id="Layer_1" xmlns="http://www.w3.org/2000/svg" xmlns:xlink="http://www.w3.org/1999/xlink" x="0px" y="0px"
	 viewBox="0 0 504 504" enable-background="new 0 0 504 504" xml:space="preserve">
<g>
	<path fill="#EB2D4B" d="M-1000.1,6.56c8.98-2.26,19.02-0.24,26.12,5.79c11.95,9.46,14.01,28.7,4.25,40.44
		c-18.79,21.88-37.64,43.7-56.45,65.56c-4.91,5.78-12.94,8.7-20.41,7.36c-7.52-1.14-14.16-6.56-16.87-13.64
		c-2.64-6.49-1.84-14.18,1.94-20.06c14.37-23.65,28.74-47.3,43.07-70.98C-1014.61,13.98-1007.91,8.55-1000.1,6.56z"/>
	<path fill="#EB2D4B" d="M-983.14,97.49c7.23-2.48,15.84-0.63,21.07,5.05c3.21,3.28,5.05,7.75,5.4,12.31
		c3.02,31.71,6.09,63.41,9.09,95.12c1.01,8.88-2.02,18.2-8.57,24.38c-9.27,9.46-25.27,10.9-36.24,3.59
		c-8.86-5.7-14.21-16.42-13.12-26.94c3.1-32.39,6.18-64.79,9.33-97.18C-995.45,106.45-990.11,99.89-983.14,97.49z"/>
	<path fill="#EB2D4B" d="M-1251.09,98.62c11.79-3.24,25.39,1.57,31.98,11.99c14.87,24.45,29.69,48.94,44.56,73.4
		c2.96,4.72,4.21,10.55,3.06,16.04c-1.29,7.61-7,14.22-14.3,16.69c-8.32,3.03-18.35,0.46-24.05-6.34
		c-18.66-21.69-37.36-43.34-56.01-65.03c-8.64-10.04-8.91-26.05-0.68-36.41C-1262.69,103.95-1257.19,100.24-1251.09,98.62z"/>
	<path fill="#EB2D4B" d="M-1167.11,117.64c3.58-1.17,7.46-1.17,11.11-0.35c31.64,7.07,63.31,13.99,94.93,21.13
		c14.16,3.31,24.02,18.46,21.38,32.75c-1.8,13.49-14.24,24.38-27.81,24.59c-4.52,0.2-9.01-0.85-13.12-2.65
		c-29.46-12.81-58.93-25.6-88.39-38.39c-7.3-3.07-12.09-10.92-11.77-18.79C-1180.68,127.76-1174.89,120.09-1167.11,117.64z"/>
	<path fill="#EB2D4B" d="M-916.16,197.49c7.57-2.8,15.36,0.36,22.81,1.93c23.99,5.66,47.98,11.3,71.98,16.94
		c5.92,1.37,11.47,4.48,15.47,9.09c6.41,7.03,8.87,17.35,6.46,26.55c-1.92,8.11-7.66,15.14-15.08,18.88
		c-7.53,3.8-16.69,4.13-24.46,0.84c-26.36-11.1-52.77-22.12-79.13-33.22c-7.91-3.4-13.3-11.87-12.93-20.49
		C-931.1,208.91-924.8,200.3-916.16,197.49z"/>
	<path fill="#EB2D4B" d="M-1148.3,211.24c13.14-3.43,27.9,3.75,33.36,16.16c4.67,10.02,3.02,22.64-4.24,31.01
		c-20.48,23.18-40.97,46.35-61.45,69.53c-2.32,2.63-4.54,5.48-7.62,7.27c-7.56,4.71-18.35,3.53-24.49-3.01
		c-6.16-5.98-7.53-16.11-3.29-23.56c16.44-27.91,32.88-55.82,49.37-83.71C-1162.76,218.09-1155.96,213.02-1148.3,211.24z"/>
	<path fill="#EB2D4B" d="M-905.26,266.13c7.67-2.02,16.5,0.89,21.09,7.45c4.98,6.61,5.09,16.35,0.37,23.13
		c-2.16,3.23-5.38,5.62-8.93,7.13c-29.22,12.66-58.44,25.35-87.64,38.06c-8.23,3.75-18.21,3.53-26.16-0.8
		c-9.39-4.98-15.56-15.39-15.25-26.03c-0.12-12.99,9.64-25.2,22.31-27.99C-968.07,280.07-936.65,273.17-905.26,266.13z"/>
	<path fill="#EB2D4B" d="M-1103.1,303.66c12.05-3.77,26.27,1.18,32.94,12c16.63,28.04,33.13,56.17,49.71,84.25
		c3.43,5.68,3.78,13.08,0.86,19.05c-3.04,6.4-9.78,10.89-16.89,11.06c-5.83,0.39-11.72-2.07-15.66-6.35
		c-19.36-21.96-38.78-43.85-58.14-65.8c-5.12-5.75-11.05-11.47-12.63-19.33C-1126.85,324.06-1117.59,307.63-1103.1,303.66z"/>
	<path fill="#EB2D4B" d="M-1156.95,345.72c10.99-2.77,23.21,4.4,26.07,15.36c3.16,10.16-2.28,22.11-12.11,26.26
		c-26.57,11.15-53.14,22.32-79.74,33.41c-12.05,4.99-27.12,0.62-34.48-10.19c-5.96-8.27-7.02-19.74-2.77-29
		c3.56-8.06,11.04-14.17,19.6-16.21C-1212.57,358.82-1184.76,352.25-1156.95,345.72z"/>
	<path fill="#EB2D4B" d="M-981.98,359.74c6.9-1.84,14.63,0.01,20,4.71c4.54,3.89,7.25,9.72,7.54,15.68
		c2.08,25.3,4.18,50.58,6.29,75.87c0.4,4.68,0.94,9.38,0.56,14.08c-0.83,8.45-5.79,16.31-12.87,20.93
		c-8.18,5.47-19.2,6.26-28.13,2.18c-10.71-4.71-17.82-16.38-16.98-28.07c2.08-25.71,4.29-51.41,6.38-77.11
		c0.64-5.64,0.25-11.63,2.94-16.81C-993.47,365.53-988.12,361.24-981.98,359.74z"/>
</g>
<g>
	<path fill="#EB2D4B" d="M287.426,7.846c8.98-2.26,19.02-0.24,26.12,5.79c11.95,9.46,14.01,28.7,4.25,40.44
		c-18.79,21.88-37.64,43.7-56.45,65.56c-4.91,5.78-12.94,8.7-20.41,7.36c-7.52-1.14-14.16-6.56-16.87-13.64
		c-2.64-6.49-1.84-14.18,1.94-20.06c14.37-23.65,28.74-47.3,43.07-70.98C272.916,15.266,279.616,9.836,287.426,7.846z"/>
	<path fill="#EB2D4B" d="M304.386,98.776c7.23-2.48,15.84-0.63,21.07,5.05c3.21,3.28,5.05,7.75,5.4,12.31
		c3.02,31.71,6.09,63.41,9.09,95.12c1.01,8.88-2.02,18.2-8.57,24.38c-9.27,9.46-25.27,10.9-36.24,3.59
		c-8.86-5.7-14.21-16.42-13.12-26.94c3.1-32.39,6.18-64.79,9.33-97.18C292.076,107.736,297.416,101.176,304.386,98.776z"/>
	<path fill="#EB2D4B" d="M36.436,99.906c11.79-3.24,25.39,1.57,31.98,11.99c14.87,24.45,29.69,48.94,44.56,73.4
		c2.96,4.72,4.21,10.55,3.06,16.04c-1.29,7.61-7,14.22-14.3,16.69c-8.32,3.03-18.35,0.46-24.05-6.34
		c-18.66-21.69-37.36-43.34-56.01-65.03c-8.64-10.04-8.91-26.05-0.68-36.41C24.836,105.236,30.336,101.526,36.436,99.906z"/>
	<path fill="#EB2D4B" d="M120.416,118.926c3.58-1.17,7.46-1.17,11.11-0.35c31.64,7.07,63.31,13.99,94.93,21.13
		c14.16,3.31,24.02,18.46,21.38,32.75c-1.8,13.49-14.24,24.38-27.81,24.59c-4.52,0.2-9.01-0.85-13.12-2.65
		c-29.46-12.81-58.93-25.6-88.39-38.39c-7.3-3.07-12.09-10.92-11.77-18.79C106.846,129.046,112.636,121.376,120.416,118.926z"/>
	<path fill="#EB2D4B" d="M371.366,198.776c7.57-2.8,15.36,0.36,22.81,1.93c23.99,5.66,47.98,11.3,71.98,16.94
		c5.92,1.37,11.47,4.48,15.47,9.09c6.41,7.03,8.87,17.35,6.46,26.55c-1.92,8.11-7.66,15.14-15.08,18.88
		c-7.53,3.8-16.69,4.13-24.46,0.84c-26.36-11.1-52.77-22.12-79.13-33.22c-7.91-3.4-13.3-11.87-12.93-20.49
		C356.426,210.196,362.726,201.586,371.366,198.776z"/>
	<path fill="#EB2D4B" d="M139.226,212.526c13.14-3.43,27.9,3.75,33.36,16.16c4.67,10.02,3.02,22.64-4.24,31.01
		c-20.48,23.18-40.97,46.35-61.45,69.53c-2.32,2.63-4.54,5.48-7.62,7.27c-7.56,4.71-18.35,3.53-24.49-3.01
		c-6.16-5.98-7.53-16.11-3.29-23.56c16.44-27.91,32.88-55.82,49.37-83.71C124.766,219.376,131.566,214.306,139.226,212.526z"/>
	<path fill="#EB2D4B" d="M382.266,267.416c7.67-2.02,16.5,0.89,21.09,7.45c4.98,6.61,5.09,16.35,0.37,23.13
		c-2.16,3.23-5.38,5.62-8.93,7.13c-29.22,12.66-58.44,25.35-87.64,38.06c-8.23,3.75-18.21,3.53-26.16-0.8
		c-9.39-4.98-15.56-15.39-15.25-26.03c-0.12-12.99,9.64-25.2,22.31-27.99C319.456,281.356,350.876,274.456,382.266,267.416z"/>
	<path fill="#EB2D4B" d="M184.426,304.946c12.05-3.77,26.27,1.18,32.94,12c16.63,28.04,33.13,56.17,49.71,84.25
		c3.43,5.68,3.78,13.08,0.86,19.05c-3.04,6.4-9.78,10.89-16.89,11.06c-5.83,0.39-11.72-2.07-15.66-6.35
		c-19.36-21.96-38.78-43.85-58.14-65.8c-5.12-5.75-11.05-11.47-12.63-19.33C160.676,325.346,169.936,308.916,184.426,304.946z"/>
	<path fill="#EB2D4B" d="M130.576,347.006c10.99-2.77,23.21,4.4,26.07,15.36c3.16,10.16-2.28,22.11-12.11,26.26
		c-26.57,11.15-53.14,22.32-79.74,33.41c-12.05,4.99-27.12,0.62-34.48-10.19c-5.96-8.27-7.02-19.74-2.77-29
		c3.56-8.06,11.04-14.17,19.6-16.21C74.956,360.106,102.766,353.536,130.576,347.006z"/>
	<path fill="#EB2D4B" d="M305.546,361.026c6.9-1.84,14.63,0.01,20,4.71c4.54,3.89,7.25,9.72,7.54,15.68
		c2.08,25.3,4.18,50.58,6.29,75.87c0.4,4.68,0.94,9.38,0.56,14.08c-0.83,8.45-5.79,16.31-12.87,20.93
		c-8.18,5.47-19.2,6.26-28.13,2.18c-10.71-4.71-17.82-16.38-16.98-28.07c2.08-25.71,4.29-51.41,6.38-77.11
		c0.64-5.64,0.25-11.63,2.94-16.81C294.056,366.816,299.406,362.526,305.546,361.026z"/>
</g>
<g>
	<g>
		<path fill="#141ED2" d="M-287.44,95.86c32.33-0.74,64.83-2.26,97.02,1.77c18.27,2.24,36.65,6.97,52.31,16.97
			c11.73,7.37,21.36,18.02,27.44,30.48c9.52,18.06,9.71,40.31,2.06,59.06c-5.27,12.6-15.31,22.43-26.03,30.54
			c16.49,7.02,28.87,21.39,35.91,37.6c8.14,18.35,9.11,39.19,5.74,58.77c-3.12,18.08-12.22,35.24-26.25,47.19
			c-11.28,10.15-25.54,16.3-40.07,20.15c-22.87,6.07-46.64,7.61-70.2,8.12c-36.52,0.07-73.04-0.52-109.5-2.57
			c0.01-102.14,0.02-204.29,0-306.43C-321.84,96.55-304.63,96.37-287.44,95.86z M-266.5,154.81c0,19.97,0,39.94,0,59.9
			c18.68,1.68,37.52,2.23,56.23,0.74c10.86-1.11,22.83-3.25,30.49-11.78c10.64-11.26,8.53-31.46-4.09-40.39
			c-11.39-8.16-25.99-9.33-39.55-9.96C-237.78,153.26-252.24,152.74-266.5,154.81z M-266.5,272.08c0,23.62,0,47.24,0,70.87
			c12.65,0.72,25.31,1.26,37.98,1.3c12.37-0.46,25.11-0.02,36.94-4.25c10.62-3.63,20.06-11.73,23.75-22.52
			c5.53-15.11-1.47-34.1-16.33-40.91c-13.81-6.33-29.43-6.64-44.35-6.57C-241.21,269.79-253.88,270.76-266.5,272.08z"/>
	</g>
	<path fill="#141ED2" d="M-698.22,97.52c23.79-0.05,47.57-0.01,71.36-0.02c25.39,52.87,50.71,105.85,72.42,160.36
		c0.54-0.05,1.61-0.14,2.14-0.19c14.53-37.38,31.48-73.76,48.38-110.11c7.85-16.72,15.82-33.39,23.85-50.02
		c23.8-0.06,47.62-0.09,71.43,0.01c10.5,79.08,15.91,158.74,20.58,238.34c1.24,22.7,2.51,45.39,3.36,68.1
		c-23.67,0.02-47.35,0.01-71.02,0.01c-1.36-43.07-2.93-86.13-4.86-129.17c-0.97-19.04-1.7-38.11-3.72-57.07
		c-2.17,0.31-2.45,2.77-3.31,4.38c-20.57,47.21-40.4,94.75-60,142.37c-17.23-0.02-34.45,0-51.68-0.01
		c-19.92-48.38-40.02-96.69-61.01-144.62c-0.41-1.11-1.15-1.88-2.23-2.32c-2.55,23.04-3.16,46.24-4.31,69.38
		c-1.74,39.01-2.96,78.04-4.44,117.06c-23.67-0.01-47.34,0.01-71.01-0.01c2.44-53.4,5.45-106.79,9.44-160.1
		C-709.12,195-704.86,146.11-698.22,97.52z"/>
</g>
</svg>
