<?xml version="1.0" encoding="UTF-8"?>
<svg version="1.1" viewBox="0 0 2048 679" width="389" height="129" xmlns="http://www.w3.org/2000/svg">
<path transform="translate(0)" d="m0 0h2048v679h-2048z" fill="#FDFDFD"/>
<path transform="translate(516,19)" d="m0 0h17l11 4 10 6 12 11 39 39 7 8 72 72 7 8 17 17 8 7v2l26-6 143-36 29-7h2l-1 8-14 51-15 52-22 78-6 18-9 17-11 13-12 9-17 8-37 10-226 57-73 18-42 10-11 2h-12l-12-4-11-7-15-14-11-12-55-55-7-8-74-74-12 2-76 19-109 27h-2l3-12 26-92 23-81 9-27 7-12 11-12 8-7 14-8 21-7 64-16 73-18 71-18 136-34z" fill="#FD8507"/>
<path transform="translate(516,19)" d="m0 0h17l11 4 10 6 12 11 39 39 7 8 72 72 7 8 17 17 8 7v3l-30 7-6-1-36-36-7-8-20-20-7-8-61-61-11-8h-7l-5 3-1 5 8 7 15 15 7 8 67 67 7 8 24 24 7 8-1 3-24 7h-6l-8-7-31-31-7-8-40-40-8-7-10-8-4-2h-5l-4 4-1 3 4 6 44 44 7 8 40 40 3 2v2l-10 3-21 5-6-3-54-54-10-7-7-1-4 4v6l5 6 8 7 7 7 7 8 31 31-3 3-27 6-5-1-16-16-11-8h-7l-5 5 1 6 12 12 7 6-1 3-2 1h-14l-17-3-10-5-12-11-69-69-7-8-41-41-7-8-25-25-4-2-3 11-6 19 1 4 22 22 7 8 62 62 7 8 20 20 7 8 37 37 7 8 6 6-1 5-4 2-7-1-12-11-81-81-7-8-23-23-7-8-26-26-5-4-7-8-4 10-6 20-1 5 12 12 7 8 14 14 7 8 97 97 7 8 19 19 14 16-1 4-7 2-8-4-13-12-20-20-7-8-30-30-7-8-88-88-4 11-7 22 4 6 11 11 7 8 30 30 7 8 98 98 7 8 12 12-1 7-7 1-8-5-10-9-27-27-7-8-66-66-7-8-31-31-8-7-7-8-2-1-1 5-8 24v7l9 9 7 8 20 20 7 8 61 61 7 8 63 63 2 4-1 4-6 2-8-4-24-22-21-21-7-8-35-35-7-8-72-72-3 9-5 18-3 8-64 16-133 33h-2l3-12 26-92 23-81 9-27 7-12 11-12 8-7 14-8 21-7 64-16 73-18 71-18 136-34z" fill="#054F82"/>
<path transform="translate(1722,83)" d="m0 0h67l22 1 4 9 26 79 33 99 2 8h2l17-59 25-89 8-28 5-10 7-7 3-2 6-1h74l1 2-19 68-58 203-15 53-7 21h-89l-30-91-27-82-8-24v-2l-2 1-15 52-15 53-19 67-5 13-7 9-8 3-6 1h-72l3-12 15-52 28-99 28-98 15-53 8-27z" fill="#FD8507"/>
<path transform="translate(1101,83)" d="m0 0h228l-1 8-18 62-194 1-10 3-11 7-7 8-6 12-10 34-20 70-15 53-2 6v7l2 3 5 2h119l6-23 11-39 1-7h-37l-25-1 4-16 11-37 4-8 8-7 7-2h139l-1 8-12 43-24 84-17 59-5 16-1 1h-236l-15-4-12-6-12-11-7-10-5-12-2-10v-13l4-20 17-59 28-99 9-29 9-19 10-14 9-10 14-11 16-9 12-5 21-5z" fill="#FD8507"/>
<path transform="translate(1376,83)" d="m0 0h56l10 2 8 6 6 10 1 2v10l-8 31-16 56-6 19h119l2-12 22-77 11-39 2-7 2-1h88l-1 9-92 322-6 17-60-1-9-4-7-6-3-5-1-4v-13l7-26 16-56 7-23 1-3h-119l-2 11-12 43-21 73-4 12-1 1h-89l4-16 20-70 39-137 19-67 15-54z" fill="#FD8507"/>
<path transform="translate(1477,528)" d="m0 0 11 1 7 3 5 6 3 11v9l-3 18-7 21-6 11-7 9-10 6-8 3-6 1h-12l-10-2-12-5-4 16-6 20-2 4h-27l1-7 13-49 14-52 5-18 2-3h19l4 1-2 9 10-4 12-6z" fill="#054F82"/>
<path transform="translate(1244,493)" d="m0 0h15l31 1 13 2-3 10-5 10-1 1-51 1-5 3-5 13-3 12h48l3 1-4 16-2 5-51 1-5 16-3 15 58 1-5 19-3 3-3 1-18 1h-35l-11-1-8-4-5-6-2-9 5-21 15-56 5-15 6-9 10-7 9-3z" fill="#054F82"/>
<path transform="translate(1649,528)" d="m0 0h9l15 2 10 5 5 6 2 4v13l-3 10-5 8-7 7-13 4-10 1-31 1-1 2 3 9 3 2h34l13-1 1 2-3 15-1 2-19 5-16 2-21-1-10-3-8-5-6-10-1-4v-12l3-15 6-17 6-11 9-10 12-7 13-3z" fill="#054F82"/>
<path transform="translate(1733,529)" d="m0 0h39l17 2 3 1-2 9-5 10h-43l-11 2v9l7 4 28 5 8 4 4 5 1 2v14l-4 11-4 6-7 7-10 4-9 2-11 1h-14l-27-3-6-1 1-6 5-12 1-1 49-1 7-3 1-1v-5l-3-3-9-3-25-5-6-4-6-7-1-2v-8l4-15 6-8 10-7z" fill="#054F82"/>
<path transform="translate(1833,529)" d="m0 0h38l16 2 4 1-3 11-4 8-50 1-5 2 1 7 4 3 29 7 9 4 5 5 2 4v10l-5 14-9 10-12 6-9 2-12 1h-12l-22-2-12-2 2-9 4-10h38l16-2 5-2-1-7-3-3-10-3-19-3-10-4-7-8-1-2v-8l4-14 6-9 10-7z" fill="#054F82"/>
<path transform="translate(1318,531)" d="m0 0h14l3 6 8 27 3 2 2-4 7-9 13-16 4-5 5-1h24l-1 4-9 11-9 10-9 11-7 8-1 5 4 10 10 29 1 5h-29l-3-5-7-25-3-6h-3l-2 4-9 11-12 14-5 5-4 2h-24l2-6 10-11 9-11 10-11 5-5 2-3-2-9-12-36z" fill="#054F82"/>
<path transform="translate(1591,528)" d="m0 0h8l-2 6-7 17-3 4-17 2-18 4-3 7-13 50-3 6-2 1-25-1 1-8 18-69 4-14 6-2h17l1 3-1 8 7-3 14-7z" fill="#054F82"/>
<path transform="translate(516,110)" d="m0 0 7 1 6 4 10 9 12 11 39 39 7 8 18 18v7l-4 2-7 1-1 2-4-2-40-40-7-8-40-40-2-5 3-5z" fill="#FD7603"/>
<path transform="translate(1459,551)" d="m0 0 9 1 5 6v7l-6 23-5 10-7 6-11 1-15-2-1-1v-8l9-31 4-6z" fill="#FDFDFD"/>
<path transform="translate(501,162)" d="m0 0 7 1 11 8 39 39 1 3v9l-8 4-4-1-30-30-7-8-10-9-4-5v-6z" fill="#FD7603"/>
<path transform="translate(1645,549)" d="m0 0 10 1 6 3 1 1-1 8-4 6-8 2-17 1-6-2-1-2 3-7 7-8z" fill="#FDFDFD"/>
<path transform="translate(269,298)" d="m0 0 4 2 5 5 11 10 7 8 15 15 7 8 5 5v2h2l7 8h-3l-54-54-6-7z" fill="#FD7904"/>
<path transform="translate(516,110)" d="m0 0 7 1 6 4 10 9 1 2-6-2-7-6h-5l-1 3-8-1-1 2-2-5 3-5z" fill="#FD8406"/>
<path transform="translate(398,227)" d="m0 0 5 2 9 8 7 9 1 3-4-2-14-14z" fill="#FD7803"/>
<path transform="translate(501,162)" d="m0 0 7 1 6 4-2 1-4-2-5 2-6 5h-1v-6z" fill="#FD8507"/>
<path transform="translate(377,272)" d="m0 0 5 2 5 5 2 4 4 2 1 4-4-2-13-13z" fill="#FD7904"/>
<path transform="translate(278,126)" d="m0 0 5 4 2 4-1 3-5-1-3-1 1-7z" fill="#FD7803"/>
</svg>
